<?xml version="1.0" encoding="utf-8"?>
<!-- Generator: Adobe Illustrator 23.0.0, SVG Export Plug-In . SVG Version: 6.00 Build 0)  -->
<svg version="1.1" id="Layer_1" xmlns="http://www.w3.org/2000/svg" xmlns:xlink="http://www.w3.org/1999/xlink" x="0px" y="0px"
	 viewBox="0 0 640 640" style="enable-background:new 0 0 640 640;" xml:space="preserve">
<style type="text/css">
	.st0{fill:#0071BC;}
	.st1{fill:#999999;}
	.st2{fill:#C1272D;}
</style>
<g id="water">
	<g>
		<path class="st0" d="M566.13,460.53c4.97-0.33,9.95-0.54,14.92-0.68c4.97-0.14,9.95-0.21,14.92-0.23
			c4.97-0.04,9.95,0.02,14.92,0.14c4.97,0.15,9.95,0.34,14.92,0.77v2c-4.97,0.43-9.95,0.62-14.92,0.77
			c-4.97,0.11-9.95,0.18-14.92,0.14c-4.97-0.02-9.95-0.09-14.92-0.23c-4.97-0.13-9.95-0.35-14.92-0.68V460.53z"/>
	</g>
	<g>
		<path class="st0" d="M233.36,460.53c6.9-0.27,13.79-0.39,20.69-0.59l20.69-0.34c13.79-0.22,27.58-0.25,41.38-0.27
			c13.79,0.03,27.58,0.06,41.38,0.28l20.69,0.33c6.9,0.2,13.79,0.31,20.69,0.58v2c-6.9,0.27-13.79,0.39-20.69,0.58l-20.69,0.33
			c-13.79,0.22-27.58,0.25-41.38,0.28c-13.79-0.02-27.58-0.06-41.38-0.27l-20.69-0.34c-6.9-0.2-13.79-0.32-20.69-0.59V460.53z"/>
	</g>
	<g>
		<path class="st0" d="M10.99,460.53c8.14-0.27,16.27-0.39,24.41-0.59l24.41-0.33c16.27-0.22,32.55-0.25,48.82-0.28
			c16.27,0.03,32.55,0.06,48.82,0.28l24.41,0.33c8.14,0.2,16.27,0.31,24.41,0.58v2c-8.14,0.27-16.27,0.39-24.41,0.58l-24.41,0.33
			c-16.27,0.22-32.55,0.25-48.82,0.28c-16.27-0.03-32.55-0.06-48.82-0.28l-24.41-0.33c-8.14-0.2-16.27-0.32-24.41-0.59V460.53z"/>
	</g>
</g>
<g>
	<g>
		<path class="st1" d="M281.84,329.16c6.37-5.56,13.26-10.45,20.31-15.09c7.09-4.59,14.42-8.82,21.98-12.62
			c15.09-7.67,31.18-13.5,47.81-17.12c8.33-1.78,16.82-2.78,25.34-3.21c2.13-0.05,4.27-0.12,6.4-0.13l6.4,0.22l1.6,0.06l1.59,0.15
			l3.19,0.31l3.18,0.33c1.06,0.13,2.11,0.34,3.16,0.51c2.1,0.38,4.21,0.68,6.3,1.12l6.21,1.51l1.55,0.39l1.52,0.49l3.04,0.99
			c2.02,0.66,4.06,1.27,6.01,2.14l5.88,2.45c1.91,0.92,3.8,1.9,5.68,2.87l2.82,1.46l2.71,1.66l5.36,3.36l-0.52,0.85l-5.62-2.78
			l-2.79-1.41l-2.89-1.2c-1.93-0.78-3.82-1.64-5.75-2.4l-5.9-2c-1.94-0.74-3.96-1.23-5.95-1.77l-3-0.8l-1.5-0.4l-1.52-0.29
			l-6.08-1.22c-2.03-0.35-4.09-0.56-6.13-0.85c-8.19-0.91-16.46-1.36-24.7-0.75c-8.24,0.46-16.44,1.56-24.54,3.26
			c-16.19,3.44-31.96,8.93-47.07,15.89c-7.55,3.5-14.99,7.28-22.23,11.43c-7.25,4.14-14.38,8.55-21.2,13.36L281.84,329.16z"/>
	</g>
	<g>
		<path class="st1" d="M481.72,136.88c0.15,5.77,0.26,11.54,0.36,17.31l0.28,17.31l0.38,34.61l0.13,34.61l0.06,17.31l-0.04,17.31
			l-0.1,34.61l-0.06,17.31l-0.15,17.31c-0.17,23.08-0.42,46.15-0.86,69.23h-1c-0.44-23.08-0.69-46.15-0.86-69.23l-0.15-17.31
			l-0.06-17.31l-0.1-34.61l-0.04-17.31l0.06-17.31l0.13-34.61l0.38-34.61l0.28-17.31c0.09-5.77,0.21-11.54,0.36-17.31H481.72z"/>
	</g>
	<g>
		<g>
			<path class="st2" d="M574.31,349.32c-0.92,16.05-2.7,31.96-4.75,47.82c-2.07,15.86-4.48,31.66-7.19,47.4
				c-2.7,15.75-5.68,31.45-8.99,47.09c-3.35,15.64-6.94,31.23-11.37,46.69l-2.96-0.51c0.96-16.05,2.75-31.95,4.78-47.81
				c2.07-15.86,4.47-31.66,7.15-47.41c2.67-15.75,5.65-31.45,8.96-47.1c3.34-15.64,6.94-31.23,11.4-46.68L574.31,349.32z"/>
		</g>
		<g>
			<path class="st2" d="M394.36,348.82c4.31,15.47,7.81,31.08,11.11,46.73c3.26,15.65,6.21,31.36,8.88,47.11
				c2.68,15.75,5.11,31.55,7.23,47.39c2.07,15.86,3.97,31.74,5.06,47.76l-2.96,0.51c-4.29-15.48-7.77-31.09-11.08-46.74
				c-3.26-15.65-6.21-31.36-8.91-47.11c-2.71-15.75-5.14-31.54-7.26-47.39c-2.09-15.85-3.97-31.74-5.03-47.77L394.36,348.82z"/>
		</g>
		<g>
			<path class="st2" d="M420.8,424.11c10.07-1.42,20.14-2.12,30.21-2.61c10.07-0.48,20.14-0.62,30.21-0.56
				c10.07,0.06,20.14,0.28,30.21,0.76c10.07,0.5,20.14,1.17,30.21,2.41v3c-10.07,1.23-20.14,1.91-30.21,2.41
				c-10.07,0.48-20.14,0.71-30.21,0.76c-10.07,0.05-20.14-0.08-30.21-0.56c-10.07-0.48-20.14-1.18-30.21-2.61V424.11z"/>
		</g>
		<g>
			<path class="st1" d="M427.34,544.34c9.16,4.85,18.29,9.73,27.51,14.22c4.63,2.19,9.25,4.4,13.97,6.14c2.34,0.9,4.7,1.7,7.03,2.3
				c1.16,0.3,2.32,0.56,3.42,0.69c1.13,0.18,2.11,0.15,3.17,0.1c2.2-0.21,4.59-0.82,6.95-1.52c2.37-0.7,4.74-1.59,7.11-2.47
				c4.74-1.8,9.42-3.91,14.11-6.02c9.34-4.3,18.62-8.91,27.94-13.46l1.04,1.71c-8.49,6.1-17.38,11.56-26.6,16.53
				c-4.61,2.5-9.33,4.79-14.22,6.87c-2.44,1.04-4.93,2-7.52,2.83c-2.59,0.82-5.26,1.53-8.22,1.85c-1.52,0.12-3.15,0.11-4.58-0.13
				c-1.47-0.19-2.85-0.51-4.2-0.87c-2.69-0.73-5.22-1.67-7.7-2.68c-2.47-1.03-4.87-2.16-7.24-3.34c-2.37-1.17-4.7-2.4-6.97-3.7
				c-9.15-5.16-17.86-10.92-26.1-17.37L427.34,544.34z"/>
		</g>
		<g>
			<path class="st2" d="M479.72,125.49l-2.85-50.67l4.35,4.35c-14.03,0.01-28.06,1.8-41.66,5.28c-13.61,3.47-26.79,8.61-39.25,15.13
				c-12.47,6.52-24.22,14.42-35.11,23.39c-10.91,8.94-20.96,18.95-30.05,29.77c-18.19,21.65-32.68,46.43-43.04,72.8
				c-10.37,26.38-16.77,54.34-18.91,82.64c-0.54,7.08-0.79,14.15-0.84,21.29c-0.03,7.32-0.44,14.65-1.18,21.94
				c-1.49,14.58-4.41,29.04-8.94,43.01c-8.98,27.95-24.22,53.83-44.14,75.29c-9.96,10.73-21,20.42-32.85,28.95
				c-5.92,4.27-12.05,8.25-18.34,11.94c-6.3,3.68-12.81,6.99-19.43,10.03c-13.25,6.06-27.07,10.88-41.26,14.19
				c-14.18,3.24-28.73,5.07-43.28,4.76v-3c14.25-0.38,28.42-2.55,42.17-6.23c6.87-1.84,13.67-3.97,20.34-6.45
				c6.66-2.49,13.2-5.31,19.59-8.42c25.54-12.45,48.87-29.5,67.84-50.53c9.47-10.51,17.92-21.94,24.98-34.18
				c7.08-12.22,12.8-25.22,17.05-38.68c4.26-13.46,6.99-27.39,8.34-41.46c0.67-7.03,1.02-14.1,1-21.17c0-7.26,0.22-14.59,0.73-21.86
				c2.02-29.12,8.38-57.98,19.06-85.2c10.62-27.23,25.51-52.85,44.31-75.34c9.4-11.24,19.81-21.66,31.15-31
				c11.35-9.31,23.64-17.54,36.7-24.33c13.05-6.8,26.89-12.16,41.19-15.78c14.3-3.62,29.06-5.48,43.82-5.46l4.59,0.01l-0.24,4.34
				l-2.85,50.67H479.72z"/>
		</g>
		<g>
			<path class="st2" d="M113.96,499.86l0.3,6.24c0.09,2.08,0.2,4.17,0.33,6.24c0.06,1.06,0.12,2.02,0.25,2.99
				c0.09,0.97,0.26,1.92,0.42,2.87c0.18,0.95,0.37,1.89,0.61,2.82c0.13,0.46,0.24,0.93,0.38,1.39c0.12,0.44,0.3,0.96,0.38,1.3
				l-2.38,1.83c-0.54-0.52-0.89-0.94-1.26-1.44c-0.36-0.49-0.67-0.99-0.95-1.51c-0.57-1.04-1.02-2.13-1.35-3.25
				c-0.35-1.12-0.57-2.26-0.72-3.41c-0.15-1.15-0.18-2.32-0.22-3.38c-0.05-2.18,0.02-4.36,0.19-6.53c0.2-2.18,0.48-4.32,1.04-6.51
				L113.96,499.86z"/>
		</g>
		<g>
			<path class="st2" d="M120.13,534.04c0.96,1.91,1.87,3.9,2.8,5.82c0.91,1.93,1.86,3.84,2.84,5.69c0.97,1.87,2.04,3.57,3.13,5.41
				c0.54,0.9,1.05,1.8,1.56,2.68l0.76,1.28c0.13,0.19,0.24,0.4,0.36,0.58c0.06,0.08,0.11,0.17,0.14,0.25
				c0.03,0.04,0.03,0.06,0.04,0.1c-0.04,0.01,0.08,0.07-0.18,0l-0.83,2.88c-0.39-0.12-0.39-0.13-0.55-0.18l-0.3-0.13
				c-0.19-0.08-0.35-0.16-0.51-0.25c-0.31-0.17-0.6-0.34-0.86-0.54c-0.53-0.37-1-0.76-1.45-1.18c-0.89-0.82-1.66-1.7-2.37-2.61
				c-1.41-1.79-2.6-3.86-3.6-5.93c-1-2.08-1.81-4.21-2.47-6.38c-0.64-2.19-1.16-4.36-1.41-6.68L120.13,534.04z"/>
		</g>
		<g>
			<path class="st2" d="M92.65,558.34c0.14,1.4,0.09,2.78-0.01,4.14c-0.1,1.36-0.29,2.72-0.53,4.06c-0.24,1.34-0.51,2.68-0.85,4.01
				c-0.34,1.33-0.71,2.65-1.22,3.95l-0.83,2.12l-1.33-1.02l0,0c-4.31-1.85-8.37-4.03-12.4-6.38c-3.99-2.38-7.89-4.96-11.6-7.87
				c-3.72-2.88-7.23-6.12-10.35-9.88c-1.55-1.89-2.95-3.95-4.13-6.23c-1.16-2.28-2.08-4.81-2.38-7.57
				c-0.14-1.36-0.12-2.83,0.12-4.23c0.23-1.4,0.64-2.73,1.16-3.97c1.05-2.48,2.47-4.64,4.07-6.56c3.22-3.81,6.91-6.89,10.78-9.59
				c3.86-2.72,7.92-5.06,12.05-7.2c4.16-2.1,8.36-4.02,12.77-5.6l0,0l1.15-0.72l0.86,1.6c1.25,2.33,2.22,4.77,3.11,7.22
				c0.44,1.23,0.85,2.48,1.21,3.74c0.36,1.26,0.68,2.53,0.89,3.84l-2.83,1c-0.65-1.16-1.2-2.35-1.71-3.56
				c-0.51-1.21-0.97-2.43-1.4-3.67c-0.84-2.48-1.62-4.98-2.1-7.58l2.01,0.88l0,0c-7.92,4.31-15.74,9.02-22.75,14.45
				c-3.46,2.75-6.79,5.67-9.36,8.97c-1.27,1.64-2.39,3.35-3.09,5.11c-0.35,0.87-0.61,1.75-0.74,2.61c-0.13,0.86-0.14,1.69-0.04,2.61
				c0.36,3.63,2.46,7.36,5.06,10.69c2.6,3.4,5.81,6.45,9.13,9.39c6.74,5.8,14.23,11.01,21.86,15.81l0,0l-2.16,1.1
				c-0.08-1.39-0.01-2.76,0.08-4.13c0.09-1.37,0.26-2.72,0.45-4.07c0.2-1.35,0.44-2.69,0.77-4.02c0.34-1.33,0.72-2.65,1.29-3.93
				L92.65,558.34z"/>
		</g>
	</g>
</g>
</svg>
